<?xml version="1.0" encoding="utf-8"?>
<!-- Generator: Adobe Illustrator 22.1.0, SVG Export Plug-In . SVG Version: 6.00 Build 0)  -->
<svg version="1.0" id="Capa_2" xmlns="http://www.w3.org/2000/svg" xmlns:xlink="http://www.w3.org/1999/xlink" x="0px" y="0px"
	 viewBox="0 0 441.3 387.4" style="enable-background:new 0 0 441.3 387.4;" xml:space="preserve">
<style type="text/css">
	.st0{fill:#FF0000;}
</style>
<g>
	<path class="st0" d="M407.3,197.8c2.3,0,4.6-0.3,6.9-0.8c10.2-2.3,19.3-10,27.1-22.6l-11.9-7.4c-5.8,9.4-12,14.9-18.3,16.4
		c-4.8,1.1-10.1,0.1-16-3.1c-2.2-89.7-75.8-162.1-166-162.1h-29.1c-13.6,0-27.1,1.7-40.3,4.9C155.4,9.6,142.8,0,128,0H95.6v55
		c-27.3,22.1-47.1,52.4-56.1,86.1H30c-16.5,0-30,13.5-30,30v14.4c0,16.5,13.5,30,30,30h7.5c6.2,25,20,47.9,39.2,65.2v18.8
		c0,18.2,14.8,33,33,33h25.2c12.8,0,24.4-7.5,29.8-18.8H219c14,42.7,54.2,73.7,101.6,73.7c58.9,0,106.8-47.9,106.8-106.8
		c0-30.6-13-58.3-33.7-77.8c0.4-2.5,0.6-4.9,0.9-7.4C398.9,197,403.2,197.8,407.3,197.8z M213.8,285c0,0.2,0,0.4,0,0.6
		c0.1,1.4,0.2,2.9,0.3,4.3c0,0.2,0,0.4,0.1,0.6c0.1,1.4,0.3,2.9,0.5,4.3c0,0.2,0,0.3,0.1,0.5c0.2,1.5,0.4,2.9,0.7,4.4c0,0,0,0,0,0.1
		h-52.3c-1,0-1.9,0-2.9,0l-5.4-0.1l-1.5,5.2c-2.3,8.1-9.8,13.8-18.3,13.8h-25.2c-10.5,0-19-8.5-19-19v-25.2l-2.5-2.1
		c-19.7-16.8-33.3-39.9-38.3-65l-1.1-5.6H30c-8.8,0-16-7.2-16-16v-14.4c0-8.8,7.2-16,16-16h20.4l1.3-5.4
		c7.9-33.9,27.5-64.3,55.1-85.8l2.7-2.1V14H128c10.2,0,18.6,8,19,18.2l0.4,9l8.6-2.6c14.2-4.3,28.9-6.4,43.8-6.4h29.1
		c83.9,0,152.1,68.2,152.1,152.1c0,2.7-0.1,5.4-0.3,8.1c-3.7-2.5-7.5-4.8-11.5-6.8c-0.1-0.1-0.3-0.1-0.4-0.2
		c-1.1-0.5-2.1-1.1-3.2-1.6c-0.5-0.2-1.1-0.5-1.6-0.7c-0.4-0.2-0.9-0.4-1.3-0.6c-1-0.4-2-0.9-3-1.3c0,0-0.1,0-0.1,0
		c-1.1-0.4-2.3-0.9-3.4-1.3c-0.1,0-0.3-0.1-0.4-0.1c-7.3-2.6-15-4.3-22.9-5.3c-0.1,0-0.2,0-0.3,0c-2.5-0.3-4.9-0.5-7.5-0.6
		c-0.3,0-0.5,0-0.8,0c-1.2,0-2.4-0.1-3.6-0.1c-58.9,0-106.8,47.9-106.8,106.8C213.7,282.1,213.8,283.5,213.8,285z M413.4,280.6
		c0,51.2-41.6,92.8-92.8,92.8c-43.1,0-79.3-29.5-89.8-69.3c-0.1-0.4-0.2-0.8-0.3-1.2c-0.1-0.4-0.2-0.8-0.3-1.3
		c-0.2-0.8-0.4-1.7-0.5-2.5c-0.1-0.3-0.1-0.6-0.2-0.9c-0.1-0.6-0.2-1.3-0.4-1.9c-0.1-0.3-0.1-0.6-0.1-0.9c-0.1-0.7-0.2-1.4-0.3-2.1
		c0-0.2-0.1-0.4-0.1-0.6c-0.1-0.9-0.2-1.9-0.3-2.8c0-0.1,0-0.3,0-0.4c-0.1-0.8-0.1-1.6-0.2-2.4c0-0.3,0-0.5-0.1-0.8
		c0-0.7-0.1-1.4-0.1-2.1c0-0.3,0-0.5,0-0.8c0-0.9,0-1.9,0-2.8c0-51.2,41.6-92.8,92.8-92.8c1.3,0,2.6,0,3.9,0.1c0.1,0,0.3,0,0.4,0
		c1.3,0.1,2.6,0.1,3.8,0.3c0.1,0,0.2,0,0.4,0c1.3,0.1,2.6,0.3,4,0.4c0,0,0,0,0,0c5.5,0.7,10.8,2,16.1,3.7c0.1,0,0.1,0,0.2,0.1
		c1.2,0.4,2.4,0.8,3.6,1.3c0.2,0.1,0.3,0.1,0.5,0.2c1.1,0.4,2.2,0.9,3.3,1.3c0.3,0.1,0.6,0.2,0.8,0.4c0.8,0.3,1.6,0.7,2.4,1.1
		c0.6,0.3,1.3,0.6,1.9,0.9c0.5,0.2,1,0.5,1.5,0.7c1.1,0.6,2.2,1.1,3.2,1.8c0.1,0,0.2,0.1,0.3,0.1
		C394.6,216.1,413.4,246.2,413.4,280.6z"/>
	<path class="st0" d="M113.6,119.9c0-5.2,3-9.7,7.4-11.8c-2.3-0.8-4.8-1.3-7.4-1.3c-12.1,0-21.9,9.8-21.9,21.9s9.8,21.9,21.9,21.9
		c11.8,0,21.5-9.4,21.9-21.1c-2.3,2.1-5.4,3.5-8.8,3.5C119.4,132.9,113.6,127.1,113.6,119.9z"/>
	<path class="st0" d="M319.2,257.4c1.5-1.1,3.9-1.6,7-1.2c7.6,0.9,11.9,4,13.9,5.6l6.6,4.9l11.1-21.5l-4.7-3.6
		c-4.2-3.2-9-5.5-14.4-7l1.7-14.4l-22.7-2.6l-1.8,15.8c-13.5,2.8-23.1,12.6-24.6,25.8c-2,17.7,11.1,27.2,24.1,34.1
		c10.3,5.6,10.8,9,10.5,11.8c-0.6,5.1-6.1,6.3-10.7,5.8c-5.7-0.7-11.7-3.2-16-6.8l-6.8-5.8l-10.8,21.9l3.9,3.5
		c4.4,4,10.9,7.2,17.9,9.1l-1.7,14.9l22.8,2.6l1.9-16.2c14.1-2.8,24.2-13.1,25.8-26.9c2.2-19.2-10.9-29-22.5-35.4
		c-12.6-7-12.4-9.2-12.1-11.2C317.6,259.8,317.9,258.4,319.2,257.4z"/>
</g>
</svg>
